M48
INCH
T01C0.0200
T02C0.0300
T03C0.0400
T04C0.0250
%
T01
X+012000Y-004500
X+010000Y-007000
X+013000Y-002500
X+006000Y+008500
X+010000Y+009500
T02
X+009000Y-010000
X+008000Y-010000
X+007000Y-010000
X+006000Y-010000
X+005000Y-010000
X+004000Y-010000
X+003000Y-010000
X+002000Y-010000
X+001000Y-010000
X+000000Y-010000
X-001000Y-010000
X-002000Y-010000
X-003000Y-010000
X-004000Y-010000
X-005000Y-010000
X-006000Y-010000
X-007000Y-010000
X-008000Y-010000
X-009000Y-010000
X-010000Y-010000
X-010000Y-004000
X-009000Y-004000
X-008000Y-004000
X-007000Y-004000
X-006000Y-004000
X-005000Y-004000
X-004000Y-004000
X-003000Y-004000
X-002000Y-004000
X-001000Y-004000
X+000000Y-004000
X+001000Y-004000
X+002000Y-004000
X+003000Y-004000
X+004000Y-004000
X+005000Y-004000
X+006000Y-004000
X+007000Y-004000
X+008000Y-004000
X+009000Y-004000
X-009500Y-012000
X-007500Y-012000
X-012500Y-013000
X-011500Y-013000
X-012500Y-011500
X-011500Y-011500
X+003500Y-013500
X+000500Y-012000
X+008000Y-013000
X+008000Y-012000
X-014700Y-011000
X-015500Y-011000
X-016300Y-011000
X+011000Y+000500
X+010000Y+000500
X+009000Y+000500
X+008000Y+000500
X+007000Y+000500
X+006000Y+000500
X+005000Y+000500
X+004000Y+000500
X+003000Y+000500
X+003000Y+003500
X+004000Y+003500
X+005000Y+003500
X+006000Y+003500
X+007000Y+003500
X+008000Y+003500
X+009000Y+003500
X+010000Y+003500
X+011000Y+003500
X+012000Y+003500
X+008000Y-002500
X+007000Y-002500
X+006000Y-002500
X+005000Y-002500
X+004000Y-002500
X+003000Y-002500
X+002000Y-002500
X+001000Y-002500
X-005000Y-000500
X-006000Y-000500
X-007000Y-000500
X-008000Y-000500
X-009000Y-000500
X-010000Y-000500
X-010000Y+003500
X-009000Y+003500
X-008000Y+003500
X-007000Y+003500
X-006000Y+003500
X-005000Y+003500
X+003500Y-012000
X+000500Y-013500
T03
X-001500Y-012500
X-005500Y-012500
X-012500Y-007500
X-016500Y-007500
X+012000Y+000500
T04
X+009000Y-002500
M30
